<svg width="11" height="11" viewBox="0 0 11 11" fill="none" xmlns="http://www.w3.org/2000/svg">
<path d="M10.3125 1.375H8.9375V0.6875C8.9375 0.275 8.6625 0 8.25 0H7.5625C7.15 0 6.875 0.275 6.875 0.6875V1.375H4.125V0.6875C4.125 0.275 3.85 0 3.4375 0H2.75C2.3375 0 2.0625 0.275 2.0625 0.6875V1.375H0.6875C0.275 1.375 0 1.65 0 2.0625V10.3125C0 10.725 0.275 11 0.6875 11H10.3125C10.725 11 11 10.725 11 10.3125V2.0625C11 1.65 10.725 1.375 10.3125 1.375ZM9.625 9.625H1.375V4.8125H9.625V9.625Z" fill="#FF0000"/>
</svg>
