<svg width="10" height="10" viewBox="0 0 10 10" fill="none" xmlns="http://www.w3.org/2000/svg">
<path fill-rule="evenodd" clip-rule="evenodd" d="M9.0625 6.875H9.375C9.75 6.875 10 7.125 10 7.5C10 7.875 9.75 8.125 9.375 8.125H0.625C0.25 8.125 0 7.875 0 7.5C0 7.125 0.25 6.875 0.625 6.875H0.9375C1.375 6.4375 1.875 5.8125 1.875 5V3.125C1.875 1.375 3.25 0 5 0C6.75 0 8.125 1.375 8.125 3.125V5C8.125 5.8125 8.625 6.4375 9.0625 6.875ZM5 10C4.3125 10 3.75 9.4375 3.75 8.75H6.25C6.25 9.4375 5.6875 10 5 10Z" fill="#253238" fill-opacity="0.85"/>
</svg>
