<svg width="13" height="13" viewBox="0 0 13 13" fill="none" xmlns="http://www.w3.org/2000/svg">
<path d="M12.7692 6.56744C12.7692 3.1915 9.99375 0.454188 6.56906 0.454188C6.20831 0.454188 5.85406 0.485063 5.50875 0.543563C4.95463 0.199875 4.29894 0 3.59613 0C1.60956 0 0 1.58681 0 3.54575C0 4.19981 0.180375 4.81163 0.494 5.33894C0.410327 5.74309 0.368129 6.15472 0.368062 6.56744C0.368062 9.94419 3.14437 12.6815 6.56825 12.6815C6.95662 12.6815 7.33525 12.6458 7.70413 12.5791C8.21113 12.8472 8.78881 13 9.40469 13C11.3904 13 13 11.4124 13 9.45506C13 8.88956 12.8651 8.35494 12.6263 7.88044C12.7205 7.45631 12.7692 7.01837 12.7692 6.56744Z" fill="#03A9F4"/>
<path d="M9.74918 9.48919C9.46237 9.88975 9.03905 10.2066 8.48899 10.4309C7.94543 10.6535 7.29462 10.7681 6.55199 10.7681C5.66149 10.7681 4.9148 10.6137 4.33143 10.3082C3.91462 10.0864 3.57174 9.78656 3.31093 9.41444C3.04687 9.04069 2.91443 8.66938 2.91443 8.30944C2.91443 8.08681 3.00137 7.89181 3.1728 7.73338C3.34262 7.57494 3.56037 7.49613 3.82037 7.49613C4.03324 7.49613 4.21687 7.55869 4.36637 7.683C4.50855 7.80325 4.63124 7.98038 4.72955 8.20706C4.83924 8.45569 4.95868 8.66531 5.08462 8.82863C5.2073 8.98869 5.38199 9.12194 5.60543 9.22675C5.83049 9.33075 6.13355 9.38519 6.50568 9.38519C7.01837 9.38519 7.43924 9.27631 7.75449 9.06425C8.06405 8.85706 8.21355 8.60681 8.21355 8.30131C8.21355 8.06081 8.13474 7.87069 7.97468 7.722C7.80568 7.566 7.58305 7.44494 7.3133 7.36125C7.03137 7.27513 6.64868 7.18088 6.1758 7.08338C5.53149 6.94769 4.98468 6.78763 4.5508 6.604C4.10637 6.41713 3.74724 6.15875 3.48562 5.83619C3.21912 5.50631 3.08424 5.09438 3.08424 4.61013C3.08424 4.14863 3.22562 3.73263 3.50512 3.3735C3.78218 3.01681 4.1868 2.73813 4.70924 2.54881C5.22355 2.36113 5.83537 2.26688 6.52843 2.26688C7.08174 2.26688 7.56843 2.33025 7.97549 2.45538C8.38418 2.5805 8.72868 2.7495 8.99924 2.95831C9.27224 3.16956 9.47537 3.393 9.60212 3.627C9.73049 3.86263 9.7963 4.09744 9.7963 4.32413C9.7963 4.54269 9.71099 4.74175 9.54199 4.914C9.37137 5.08788 9.15687 5.17563 8.90499 5.17563C8.67587 5.17563 8.49549 5.11956 8.37118 5.0115C8.25499 4.90994 8.13393 4.7515 8.00068 4.52563C7.8463 4.23638 7.65862 4.00806 7.44412 3.84638C7.2353 3.68956 6.88755 3.61156 6.40818 3.61156C5.96455 3.61156 5.60218 3.69931 5.33405 3.87319C5.07568 4.03975 4.94974 4.2315 4.94974 4.459C4.94974 4.59794 4.99037 4.71413 5.07405 4.81406C5.1618 4.92131 5.28612 5.01313 5.44374 5.09113C5.60624 5.17156 5.77443 5.23656 5.94262 5.28206C6.11487 5.32919 6.4033 5.39988 6.80062 5.49006C7.30274 5.59569 7.76343 5.71513 8.1713 5.84431C8.58487 5.9735 8.94074 6.13356 9.23324 6.32125C9.5298 6.51219 9.76462 6.75594 9.93199 7.04844C10.0994 7.34338 10.1839 7.70494 10.1839 8.12581C10.1831 8.62875 10.0368 9.08781 9.74918 9.48919Z" fill="#FAFAFA"/>
</svg>
