<svg width="28" height="28" viewBox="0 0 28 28" fill="none" xmlns="http://www.w3.org/2000/svg">
<path fill-rule="evenodd" clip-rule="evenodd" d="M3.11111 0H24.8889C26.6 0 28 1.4 28 3.11111V24.8889C28 26.6 26.6 28 24.8889 28H3.11111C1.4 28 0 26.6 0 24.8889V3.11111C0 1.4 1.4 0 3.11111 0Z" fill="#E56F60"/>
<path d="M23.8291 18.549C23.1038 17.2392 19.9275 16.405 17.1227 16.2469C16.8692 15.9755 16.6119 15.69 16.3481 15.3899C13.9376 12.6339 12.9616 8.62877 12.597 6.50704C12.5537 6.05745 12.506 5.68369 12.4659 5.40527C12.4334 5.18373 12.3652 4.72168 11.8847 4.72168C11.7309 4.72168 11.5825 4.78776 11.4768 4.90531C11.3057 5.10085 11.3311 5.31102 11.3614 5.55369C11.3956 5.83211 11.447 6.20478 11.5202 6.63C11.7255 8.78423 11.8224 12.8858 10.1644 16.1439C9.99156 16.4836 9.81931 16.8097 9.64814 17.1206C6.54543 18.023 4.04182 19.6323 3.6751 20.967C3.54239 21.4502 3.65777 21.9133 4.00065 22.2719C4.39986 22.689 4.87112 22.9002 5.40142 22.9002C6.86935 22.9002 8.54258 21.2655 10.3745 18.0431C11.1903 17.8286 12.0001 17.679 12.7828 17.6C13.0878 17.5691 13.5812 17.5046 13.8846 17.458C14.7204 17.3291 15.6661 17.2771 16.6379 17.3091C18.8869 19.6469 20.7259 20.8321 22.1039 20.8321C22.8438 20.8316 23.4565 20.4708 23.8281 19.8165C24.0567 19.4113 24.0577 18.9606 23.8291 18.549ZM5.40088 21.8169C5.17121 21.8169 4.97512 21.7237 4.78283 21.5228C4.70428 21.441 4.68695 21.3706 4.71945 21.2546C4.90849 20.5673 6.49668 19.3891 8.81775 18.5338C7.50636 20.603 6.2513 21.8169 5.40088 21.8169ZM13.7183 16.3888C13.4301 16.4332 12.9621 16.4939 12.6728 16.5242C12.1469 16.5762 11.6063 16.6591 11.0608 16.7707C11.0836 16.7262 11.1063 16.6813 11.1291 16.6363C11.9421 15.0389 12.4459 13.1236 12.6322 10.9282C13.3781 13.0158 14.3509 14.7524 15.5323 16.1033C15.567 16.1434 15.6033 16.184 15.638 16.2252C14.956 16.2414 14.3125 16.2972 13.7183 16.3888ZM22.8834 19.2846C22.7036 19.6031 22.4479 19.751 22.0812 19.751H22.0806C21.2194 19.751 19.895 18.9357 18.3095 17.4407C20.7633 17.7489 22.56 18.4916 22.8823 19.0739C22.9289 19.1584 22.9289 19.2033 22.8834 19.2846Z" fill="white"/>
</svg>
